<?xml version="1.0" standalone="no"?>
<!DOCTYPE svg PUBLIC "-//W3C//DTD SVG 20010904//EN"
 "http://www.w3.org/TR/2001/REC-SVG-20010904/DTD/svg10.dtd">
<svg version="1.0" xmlns="http://www.w3.org/2000/svg"
 width="16.000000pt" height="16.000000pt" viewBox="0 0 16.000000 16.000000"
 preserveAspectRatio="xMidYMid meet">

<g transform="translate(0.000000,16.000000) scale(0.100000,-0.100000)"
fill="#000000" stroke="none">
<path d="M37 122 c-21 -23 -22 -66 -1 -86 36 -37 104 -7 104 46 0 51 -69 78
-103 40z m26 -50 c10 -2 17 3 17 13 0 8 7 15 15 15 8 0 15 -5 15 -11 0 -5 -5
-7 -12 -3 -7 4 -8 3 -4 -4 9 -16 23 -15 29 1 2 7 3 6 3 -3 -1 -11 -13 -15 -46
-15 -37 0 -45 3 -47 20 -2 15 -1 16 5 5 4 -8 15 -16 25 -18z"/>
</g>
</svg>
